<svg width="112" height="112" viewBox="0 0 112 112" fill="none" xmlns="http://www.w3.org/2000/svg">
<g filter="url(#filter0_d_36_3089)">
<path d="M24 48C24 30.3269 38.3269 16 56 16C73.6731 16 88 30.3269 88 48C88 65.6731 73.6731 80 56 80C38.3269 80 24 65.6731 24 48Z" fill="url(#paint0_linear_36_3089)" shape-rendering="crispEdges"/>
<path d="M55.9999 59.6667C62.4432 59.6667 67.6666 54.4433 67.6666 48C67.6666 41.5567 62.4432 36.3333 55.9999 36.3333C49.5566 36.3333 44.3333 41.5567 44.3333 48C44.3333 54.4433 49.5566 59.6667 55.9999 59.6667Z" stroke="white" stroke-width="2.33333" stroke-linecap="round" stroke-linejoin="round"/>
<path d="M56 41V48L60.6667 50.3333" stroke="white" stroke-width="2.33333" stroke-linecap="round" stroke-linejoin="round"/>
</g>
<defs>
<filter id="filter0_d_36_3089" x="0" y="0" width="112" height="112" filterUnits="userSpaceOnUse" color-interpolation-filters="sRGB">
<feFlood flood-opacity="0" result="BackgroundImageFix"/>
<feColorMatrix in="SourceAlpha" type="matrix" values="0 0 0 0 0 0 0 0 0 0 0 0 0 0 0 0 0 0 127 0" result="hardAlpha"/>
<feOffset dy="8"/>
<feGaussianBlur stdDeviation="12"/>
<feComposite in2="hardAlpha" operator="out"/>
<feColorMatrix type="matrix" values="0 0 0 0 0.878431 0 0 0 0 0.270588 0 0 0 0 0.415686 0 0 0 0.25 0"/>
<feBlend mode="normal" in2="BackgroundImageFix" result="effect1_dropShadow_36_3089"/>
<feBlend mode="normal" in="SourceGraphic" in2="effect1_dropShadow_36_3089" result="shape"/>
</filter>
<linearGradient id="paint0_linear_36_3089" x1="24" y1="16" x2="88" y2="80" gradientUnits="userSpaceOnUse">
<stop stop-color="#E0456A"/>
<stop offset="1" stop-color="#E98CA4"/>
</linearGradient>
</defs>
</svg>
